<svg xmlns="http://www.w3.org/2000/svg" xmlns:xlink="http://www.w3.org/1999/xlink" width="22" zoomAndPan="magnify" viewBox="0 0 30 30.000001" height="22" preserveAspectRatio="xMidYMid meet" version="1.0"><defs><clipPath id="id1"><path d="M 1.097656 0.632812 L 28.679688 0.632812 L 28.679688 28.210938 L 1.097656 28.210938 Z M 1.097656 0.632812 " clip-rule="nonzero"/></clipPath></defs><g clip-path="url(#id1)"><path fill="rgb(94.119263%, 24.708557%, 21.179199%)" d="M 28.664062 14.421875 C 28.664062 10.613281 27.121094 7.167969 24.628906 4.671875 C 22.136719 2.175781 18.695312 0.632812 14.890625 0.632812 C 11.085938 0.632812 7.640625 2.175781 5.148438 4.671875 C 2.65625 7.167969 1.113281 10.613281 1.113281 14.421875 C 1.113281 18.230469 2.65625 21.679688 5.148438 24.175781 C 7.640625 26.671875 11.085938 28.214844 14.890625 28.214844 C 18.695312 28.214844 22.136719 26.671875 24.628906 24.175781 C 27.121094 21.679688 28.664062 18.230469 28.664062 14.421875 " fill-opacity="1" fill-rule="evenodd"/></g><path fill="rgb(100%, 100%, 100%)" d="M 14.566406 11.445312 L 8.675781 5.550781 L 6.027344 8.203125 L 11.914062 14.097656 L 11.917969 14.097656 C 12.097656 14.277344 12.097656 14.570312 11.917969 14.75 L 6.027344 20.644531 L 8.675781 23.296875 L 14.566406 17.398438 C 14.746094 17.21875 15.035156 17.21875 15.214844 17.398438 L 21.105469 23.296875 L 23.753906 20.644531 L 17.863281 14.75 C 17.683594 14.570312 17.683594 14.277344 17.863281 14.097656 L 23.753906 8.203125 L 21.105469 5.550781 L 15.214844 11.445312 C 15.035156 11.625 14.746094 11.625 14.566406 11.445312 " fill-opacity="1" fill-rule="evenodd"/></svg>