<svg xmlns="http://www.w3.org/2000/svg" xmlns:xlink="http://www.w3.org/1999/xlink" width="18" zoomAndPan="magnify" viewBox="0 0 30 30.000001" height="18" preserveAspectRatio="xMidYMid meet" version="1.0"><defs><clipPath id="id1"><path d="M 2.113281 0.332031 L 28.242188 0.332031 L 28.242188 28.640625 L 2.113281 28.640625 Z M 2.113281 0.332031 " clip-rule="nonzero"/></clipPath></defs><g clip-path="url(#id1)"><path fill="rgb(0%, 0%, 0%)" d="M 2.113281 14.488281 C 2.113281 6.714844 8.511719 0.414062 16.410156 0.414062 C 17.988281 0.414062 19.507812 0.667969 20.933594 1.132812 C 21.398438 1.285156 21.738281 1.683594 21.808594 2.164062 C 21.878906 2.644531 21.667969 3.121094 21.261719 3.398438 C 18.722656 5.132812 17.0625 8.019531 17.0625 11.289062 C 17.0625 16.585938 21.425781 20.882812 26.8125 20.882812 C 27.304688 20.882812 27.753906 21.15625 27.972656 21.589844 C 28.195312 22.023438 28.148438 22.542969 27.851562 22.929688 C 25.246094 26.347656 21.089844 28.558594 16.410156 28.558594 C 8.511719 28.558594 2.113281 22.257812 2.113281 14.488281 Z M 2.113281 14.488281 " fill-opacity="1" fill-rule="evenodd"/></g></svg>