<svg xmlns="http://www.w3.org/2000/svg" xmlns:xlink="http://www.w3.org/1999/xlink" width="18" zoomAndPan="magnify" viewBox="0 0 30 30.000001" height="18" preserveAspectRatio="xMidYMid meet" version="1.0"><defs><clipPath id="id1"><path d="M 0.484375 0.234375 L 29.515625 0.234375 L 29.515625 24 L 0.484375 24 Z M 0.484375 0.234375 " clip-rule="nonzero"/></clipPath><clipPath id="id2"><path d="M 6 24 L 11 24 L 11 28.542969 L 6 28.542969 Z M 6 24 " clip-rule="nonzero"/></clipPath><clipPath id="id3"><path d="M 23 24 L 28 24 L 28 28.542969 L 23 28.542969 Z M 23 24 " clip-rule="nonzero"/></clipPath></defs><g clip-path="url(#id1)"><path fill="rgb(6.269836%, 5.879211%, 5.099487%)" d="M 28.058594 2.25 L 8.980469 2.25 C 8.960938 2.25 6.378906 0.230469 6.355469 0.230469 L 0.53125 0.230469 L 0.53125 2.90625 L 4.40625 2.90625 C 4.449219 2.90625 7.339844 17.425781 7.339844 17.425781 L 5.347656 22.046875 L 5.34375 22.054688 C 5.261719 22.242188 5.234375 22.457031 5.285156 22.65625 C 5.390625 23.058594 5.738281 23.328125 6.132812 23.347656 L 27.835938 23.347656 C 28.03125 23.347656 28.1875 23.191406 28.1875 23 L 28.1875 20.988281 C 28.1875 20.796875 28.03125 20.640625 27.835938 20.640625 L 9.09375 20.640625 L 9.867188 18.839844 L 25.195312 18.839844 C 25.867188 18.839844 26.441406 18.371094 26.578125 17.722656 L 29.464844 3.664062 L 29.46875 3.648438 C 29.46875 2.875 28.839844 2.25 28.058594 2.25 " fill-opacity="1" fill-rule="nonzero"/></g><g clip-path="url(#id2)"><path fill="rgb(6.269836%, 5.879211%, 5.099487%)" d="M 9.035156 24.390625 C 7.757812 24.277344 6.695312 25.332031 6.808594 26.597656 C 6.898438 27.566406 7.683594 28.34375 8.660156 28.429688 C 9.933594 28.542969 11 27.488281 10.886719 26.226562 C 10.796875 25.257812 10.011719 24.476562 9.035156 24.390625 " fill-opacity="1" fill-rule="nonzero"/></g><g clip-path="url(#id3)"><path fill="rgb(6.269836%, 5.879211%, 5.099487%)" d="M 25.566406 24.390625 C 24.292969 24.277344 23.230469 25.332031 23.34375 26.597656 C 23.429688 27.566406 24.21875 28.34375 25.195312 28.429688 C 26.46875 28.542969 27.53125 27.488281 27.417969 26.226562 C 27.332031 25.257812 26.546875 24.476562 25.566406 24.390625 " fill-opacity="1" fill-rule="nonzero"/></g></svg>