<svg xmlns="http://www.w3.org/2000/svg" xmlns:xlink="http://www.w3.org/1999/xlink" width="80" zoomAndPan="magnify" viewBox="0 0 30 30.000001" height="80" preserveAspectRatio="xMidYMid meet" version="1.0"><defs><clipPath id="id1"><path d="M 1.167969 1.714844 L 9 1.714844 L 9 27.121094 L 1.167969 27.121094 Z M 1.167969 1.714844 " clip-rule="nonzero"/></clipPath><clipPath id="id2"><path d="M 8 1.714844 L 15 1.714844 L 15 27 L 8 27 Z M 8 1.714844 " clip-rule="nonzero"/></clipPath><clipPath id="id3"><path d="M 14 1.714844 L 22 1.714844 L 22 27 L 14 27 Z M 14 1.714844 " clip-rule="nonzero"/></clipPath><clipPath id="id4"><path d="M 21 1.714844 L 28.75 1.714844 L 28.75 27.121094 L 21 27.121094 Z M 21 1.714844 " clip-rule="nonzero"/></clipPath><clipPath id="id5"><path d="M 1.167969 2 L 9 2 L 9 27 L 1.167969 27 Z M 1.167969 2 " clip-rule="nonzero"/></clipPath><clipPath id="id6"><path d="M 1.167969 3 L 6 3 L 6 13 L 1.167969 13 Z M 1.167969 3 " clip-rule="nonzero"/></clipPath><clipPath id="id7"><path d="M 1.167969 17 L 9 17 L 9 27 L 1.167969 27 Z M 1.167969 17 " clip-rule="nonzero"/></clipPath><clipPath id="id8"><path d="M 21 2 L 28.75 2 L 28.75 27 L 21 27 Z M 21 2 " clip-rule="nonzero"/></clipPath><clipPath id="id9"><path d="M 21 2 L 28.75 2 L 28.75 15 L 21 15 Z M 21 2 " clip-rule="nonzero"/></clipPath><clipPath id="id10"><path d="M 5 2 L 28.75 2 L 28.75 20 L 5 20 Z M 5 2 " clip-rule="nonzero"/></clipPath><clipPath id="id11"><path d="M 1.167969 15 L 17 15 L 17 26 L 1.167969 26 Z M 1.167969 15 " clip-rule="nonzero"/></clipPath></defs><g clip-path="url(#id1)"><path fill="rgb(82.749939%, 82.348633%, 82.348633%)" d="M 8.453125 25.003906 L 1.1875 27.121094 L 1.1875 3.832031 L 8.453125 1.714844 L 8.453125 25.003906 " fill-opacity="1" fill-rule="nonzero"/></g><g clip-path="url(#id2)"><path fill="rgb(65.489197%, 64.709473%, 64.709473%)" d="M 8.390625 25.003906 L 14.894531 26.867188 L 14.894531 3.578125 L 8.390625 1.714844 L 8.390625 25.003906 " fill-opacity="1" fill-rule="nonzero"/></g><g clip-path="url(#id3)"><path fill="rgb(82.749939%, 82.348633%, 82.348633%)" d="M 21.46875 25.003906 L 14.832031 26.867188 L 14.832031 3.578125 L 21.46875 1.714844 L 21.46875 25.003906 " fill-opacity="1" fill-rule="nonzero"/></g><g clip-path="url(#id4)"><path fill="rgb(65.489197%, 64.709473%, 64.709473%)" d="M 21.402344 25.003906 L 28.730469 27.121094 L 28.730469 3.832031 L 21.402344 1.714844 L 21.402344 25.003906 " fill-opacity="1" fill-rule="nonzero"/></g><g clip-path="url(#id5)"><path fill="rgb(100%, 100%, 100%)" d="M 8.453125 24.414062 L 1.945312 26.175781 L 1.945312 4.167969 L 8.453125 2.40625 L 8.453125 24.414062 " fill-opacity="1" fill-rule="nonzero"/></g><path fill="rgb(82.749939%, 82.348633%, 82.348633%)" d="M 8.390625 24.414062 L 14.894531 26.175781 L 14.894531 4.167969 L 8.390625 2.40625 L 8.390625 24.414062 " fill-opacity="1" fill-rule="nonzero"/><g clip-path="url(#id6)"><path fill="rgb(43.139648%, 61.569214%, 16.859436%)" d="M 5.542969 7.441406 C 5.835938 5.933594 5.519531 4.554688 4.777344 3.402344 L 1.945312 4.167969 L 1.945312 12.777344 C 3.730469 11.484375 5.113281 9.625 5.542969 7.441406 " fill-opacity="1" fill-rule="nonzero"/></g><g clip-path="url(#id7)"><path fill="rgb(43.139648%, 61.569214%, 16.859436%)" d="M 8.339844 18.242188 C 8.039062 18.019531 7.667969 17.878906 7.304688 17.800781 C 6.5625 17.648438 5.792969 17.789062 5.082031 18.011719 C 3.964844 18.367188 2.9375 18.953125 1.945312 19.582031 L 1.945312 26.175781 L 8.453125 24.414062 L 8.453125 18.339844 C 8.417969 18.304688 8.378906 18.273438 8.339844 18.242188 " fill-opacity="1" fill-rule="nonzero"/></g><path fill="rgb(27.449036%, 33.329773%, 11.759949%)" d="M 13.261719 23.476562 C 13.320312 22.453125 13.359375 21.070312 12.65625 20.230469 C 12.195312 19.683594 11.578125 19.835938 10.941406 19.878906 C 10.136719 19.933594 9.394531 19.785156 8.882812 19.128906 C 8.703125 18.898438 8.578125 18.625 8.390625 18.410156 L 8.390625 24.414062 L 12.972656 25.65625 C 13.125 24.933594 13.222656 24.203125 13.261719 23.476562 " fill-opacity="1" fill-rule="nonzero"/><path fill="rgb(59.999084%, 87.059021%, 97.24884%)" d="M 8.808594 3.382812 C 8.453125 4.695312 8.761719 5.71875 9.769531 6.601562 C 10.453125 7.195312 11.1875 7.722656 11.660156 8.519531 C 12.046875 9.175781 12.074219 9.871094 12.136719 10.613281 C 12.164062 10.957031 12.148438 11.746094 12.558594 11.863281 C 13.09375 12.019531 13.683594 11.433594 13.910156 11.027344 C 14.664062 9.691406 14.621094 7.875 14.554688 6.394531 C 14.519531 5.617188 14.460938 4.808594 14.328125 4.015625 L 9.082031 2.59375 C 8.976562 2.851562 8.882812 3.113281 8.808594 3.382812 " fill-opacity="1" fill-rule="nonzero"/><path fill="rgb(100%, 100%, 100%)" d="M 21.46875 24.414062 L 14.832031 26.175781 L 14.832031 4.167969 L 21.46875 2.40625 L 21.46875 24.414062 " fill-opacity="1" fill-rule="nonzero"/><g clip-path="url(#id8)"><path fill="rgb(82.749939%, 82.348633%, 82.348633%)" d="M 21.402344 24.414062 L 28.035156 26.175781 L 28.035156 4.167969 L 21.402344 2.40625 L 21.402344 24.414062 " fill-opacity="1" fill-rule="nonzero"/></g><path fill="rgb(43.139648%, 61.569214%, 16.859436%)" d="M 17.164062 7.121094 C 17.699219 8.875 19.882812 9.324219 20.460938 11.058594 C 20.617188 11.527344 20.609375 11.984375 20.5 12.464844 C 20.40625 12.882812 20.191406 13.28125 20.425781 13.683594 C 20.636719 14.046875 21.035156 14.261719 21.46875 14.398438 L 21.46875 2.40625 L 18.3125 3.246094 C 17.433594 4.421875 16.753906 5.777344 17.164062 7.121094 " fill-opacity="1" fill-rule="nonzero"/><path fill="rgb(59.999084%, 87.059021%, 97.24884%)" d="M 18.828125 20.542969 C 17.339844 21.6875 17.179688 23.613281 17.398438 25.496094 L 21.46875 24.414062 L 21.46875 19.558594 C 20.519531 19.617188 19.574219 19.964844 18.828125 20.542969 " fill-opacity="1" fill-rule="nonzero"/><g clip-path="url(#id9)"><path fill="rgb(27.449036%, 33.329773%, 11.759949%)" d="M 22.289062 14.59375 C 23.117188 14.699219 23.980469 14.671875 24.773438 14.410156 C 25.675781 14.109375 26.488281 13.636719 27.449219 13.527344 C 27.648438 13.503906 27.84375 13.5 28.035156 13.503906 L 28.035156 4.167969 L 21.402344 2.40625 L 21.402344 14.417969 C 21.707031 14.507812 22.019531 14.558594 22.289062 14.59375 " fill-opacity="1" fill-rule="nonzero"/></g><path fill="rgb(42.749023%, 81.568909%, 96.078491%)" d="M 25.765625 23.324219 C 25.480469 22.03125 24.867188 20.777344 23.667969 20.078125 C 22.976562 19.675781 22.191406 19.515625 21.402344 19.554688 L 21.402344 24.414062 L 26 25.636719 C 25.996094 24.859375 25.933594 24.082031 25.765625 23.324219 " fill-opacity="1" fill-rule="nonzero"/><g clip-path="url(#id10)"><path fill="rgb(97.24884%, 63.529968%, 15.289307%)" d="M 25.40625 17.328125 C 24.796875 17.351562 24.214844 17.496094 23.648438 17.628906 C 23.171875 17.746094 22.722656 17.855469 22.265625 17.898438 C 20.523438 18.074219 19.230469 17.160156 18.847656 16.167969 C 18.785156 16.007812 18.742188 15.835938 18.691406 15.652344 C 18.609375 15.332031 18.519531 15.003906 18.335938 14.699219 C 17.945312 14.050781 16.941406 13.390625 15.40625 13.664062 C 14.847656 13.765625 14.320312 13.960938 13.808594 14.148438 C 13.402344 14.300781 13.023438 14.441406 12.628906 14.539062 C 11.226562 14.886719 9.769531 14.625 8.730469 13.835938 C 7.628906 13.003906 7.070312 11.554688 7.367188 10.316406 C 7.4375 10.027344 7.546875 9.75 7.664062 9.457031 C 7.734375 9.28125 7.808594 9.097656 7.867188 8.914062 C 8.496094 7.027344 7.644531 4.585938 6.453125 2.988281 C 6.222656 3.066406 5.988281 3.136719 5.75 3.203125 C 6.953125 4.695312 7.792969 7.023438 7.222656 8.695312 C 7.164062 8.867188 7.101562 9.03125 7.027344 9.207031 C 6.910156 9.511719 6.785156 9.824219 6.703125 10.160156 C 6.347656 11.652344 7.007812 13.386719 8.316406 14.375 C 9.519531 15.289062 11.191406 15.59375 12.792969 15.199219 C 13.226562 15.089844 13.640625 14.933594 14.042969 14.785156 C 14.550781 14.601562 15.027344 14.421875 15.527344 14.332031 C 16.332031 14.1875 17.332031 14.351562 17.753906 15.046875 C 17.886719 15.269531 17.957031 15.539062 18.03125 15.824219 C 18.082031 16.015625 18.136719 16.214844 18.210938 16.410156 C 18.835938 18.039062 20.761719 18.730469 22.332031 18.574219 C 22.839844 18.523438 23.332031 18.40625 23.808594 18.289062 C 24.367188 18.15625 24.894531 18.027344 25.433594 18.003906 L 25.472656 18.003906 C 26.269531 18.003906 27.65625 19.085938 28.039062 19.957031 L 28.039062 18.757812 C 27.28125 17.929688 26.144531 17.292969 25.40625 17.328125 " fill-opacity="1" fill-rule="nonzero"/></g><g clip-path="url(#id11)"><path fill="rgb(97.24884%, 63.529968%, 15.289307%)" d="M 16.117188 22.027344 C 16.296875 21.769531 16.484375 21.503906 16.601562 21.183594 C 16.917969 20.300781 16.542969 19.226562 15.742188 18.738281 C 15.023438 18.296875 14.210938 18.363281 13.421875 18.425781 C 12.914062 18.46875 12.4375 18.507812 11.996094 18.421875 C 11.433594 18.308594 11.027344 17.839844 10.601562 17.347656 C 10.171875 16.851562 9.722656 16.335938 9.058594 16.09375 C 6.917969 15.304688 4.105469 15.851562 1.925781 16.820312 L 1.925781 17.566406 C 4.054688 16.5625 6.847656 16.003906 8.824219 16.730469 C 9.324219 16.910156 9.695312 17.339844 10.085938 17.792969 C 10.570312 18.351562 11.070312 18.929688 11.863281 19.085938 C 12.398438 19.191406 12.949219 19.148438 13.476562 19.105469 C 14.1875 19.046875 14.855469 18.992188 15.382812 19.316406 C 15.910156 19.640625 16.167969 20.375 15.960938 20.953125 C 15.871094 21.191406 15.71875 21.410156 15.558594 21.644531 C 15.449219 21.796875 15.339844 21.953125 15.242188 22.125 C 14.542969 23.367188 14.808594 24.851562 15.449219 25.988281 C 15.671875 25.921875 15.898438 25.863281 16.128906 25.808594 C 15.527344 24.832031 15.242188 23.523438 15.839844 22.457031 C 15.917969 22.3125 16.015625 22.175781 16.117188 22.027344 " fill-opacity="1" fill-rule="nonzero"/></g><path fill="rgb(94.898987%, 34.899902%, 27.449036%)" d="M 26.167969 11.160156 C 26.167969 13.128906 24.058594 18.058594 22.585938 18.058594 C 21.167969 18.058594 19.003906 13.128906 19.003906 11.160156 C 19.003906 9.191406 20.605469 7.59375 22.585938 7.59375 C 24.5625 7.59375 26.167969 9.191406 26.167969 11.160156 " fill-opacity="1" fill-rule="nonzero"/><path fill="rgb(100%, 100%, 100%)" d="M 24.722656 11.449219 C 24.722656 12.621094 23.765625 13.574219 22.585938 13.574219 C 21.402344 13.574219 20.445312 12.621094 20.445312 11.449219 C 20.445312 10.273438 21.402344 9.320312 22.585938 9.320312 C 23.765625 9.320312 24.722656 10.273438 24.722656 11.449219 " fill-opacity="1" fill-rule="nonzero"/></svg>