<svg xmlns="http://www.w3.org/2000/svg" xmlns:xlink="http://www.w3.org/1999/xlink" width="17" zoomAndPan="magnify" viewBox="0 0 30 30.000001" height="17" preserveAspectRatio="xMidYMid meet" version="1.0"><defs><clipPath id="id1"><path d="M 0.847656 11 L 29.152344 11 L 29.152344 18 L 0.847656 18 Z M 0.847656 11 " clip-rule="nonzero"/></clipPath><clipPath id="id2"><path d="M 0.847656 0.363281 L 29.152344 0.363281 L 29.152344 7 L 0.847656 7 Z M 0.847656 0.363281 " clip-rule="nonzero"/></clipPath><clipPath id="id3"><path d="M 0.847656 23 L 29.152344 23 L 29.152344 28.667969 L 0.847656 28.667969 Z M 0.847656 23 " clip-rule="nonzero"/></clipPath></defs><g clip-path="url(#id1)"><path fill="rgb(0%, 0%, 0%)" d="M 29.152344 14.515625 C 29.152344 16.078125 27.886719 17.347656 26.324219 17.347656 L 3.675781 17.347656 C 2.113281 17.347656 0.847656 16.078125 0.847656 14.515625 C 0.847656 12.953125 2.113281 11.683594 3.675781 11.683594 L 26.324219 11.683594 C 27.886719 11.683594 29.152344 12.953125 29.152344 14.515625 Z M 29.152344 14.515625 " fill-opacity="1" fill-rule="nonzero"/></g><g clip-path="url(#id2)"><path fill="rgb(0%, 0%, 0%)" d="M 29.152344 3.195312 C 29.152344 4.757812 27.886719 6.023438 26.324219 6.023438 L 3.675781 6.023438 C 2.113281 6.023438 0.847656 4.757812 0.847656 3.195312 C 0.847656 1.632812 2.113281 0.363281 3.675781 0.363281 L 26.324219 0.363281 C 27.886719 0.363281 29.152344 1.632812 29.152344 3.195312 Z M 29.152344 3.195312 " fill-opacity="1" fill-rule="nonzero"/></g><g clip-path="url(#id3)"><path fill="rgb(0%, 0%, 0%)" d="M 29.152344 25.839844 C 29.152344 27.402344 27.886719 28.667969 26.324219 28.667969 L 3.675781 28.667969 C 2.113281 28.667969 0.847656 27.402344 0.847656 25.839844 C 0.847656 24.277344 2.113281 23.007812 3.675781 23.007812 L 26.324219 23.007812 C 27.886719 23.007812 29.152344 24.277344 29.152344 25.839844 Z M 29.152344 25.839844 " fill-opacity="1" fill-rule="nonzero"/></g></svg>