<svg xmlns="http://www.w3.org/2000/svg" xmlns:xlink="http://www.w3.org/1999/xlink" width="20" zoomAndPan="magnify" viewBox="0 0 30 30.000001" height="20" preserveAspectRatio="xMidYMid meet" version="1.0"><defs><clipPath id="id1"><path d="M 10 0.355469 L 20 0.355469 L 20 6 L 10 6 Z M 10 0.355469 " clip-rule="nonzero"/></clipPath><clipPath id="id2"><path d="M 4 3 L 26 3 L 26 28.660156 L 4 28.660156 Z M 4 3 " clip-rule="nonzero"/></clipPath><clipPath id="id3"><path d="M 2.308594 2 L 27.710938 2 L 27.710938 7 L 2.308594 7 Z M 2.308594 2 " clip-rule="nonzero"/></clipPath></defs><g clip-path="url(#id1)"><path fill="rgb(100%, 8.628845%, 8.628845%)" d="M 12.777344 1.246094 C 11.769531 1.246094 10.953125 2.0625 10.953125 3.066406 C 10.953125 4.070312 11.769531 4.886719 12.777344 4.886719 L 17.242188 4.886719 C 18.246094 4.886719 19.066406 4.070312 19.066406 3.066406 C 19.066406 2.0625 18.246094 1.246094 17.242188 1.246094 Z M 17.242188 5.78125 L 12.777344 5.78125 C 11.277344 5.78125 10.058594 4.5625 10.058594 3.066406 C 10.058594 1.570312 11.277344 0.351562 12.777344 0.351562 L 17.242188 0.351562 C 18.738281 0.351562 19.957031 1.570312 19.957031 3.066406 C 19.957031 4.5625 18.738281 5.78125 17.242188 5.78125 " fill-opacity="1" fill-rule="nonzero"/></g><g clip-path="url(#id2)"><path fill="rgb(100%, 8.628845%, 8.628845%)" d="M 25.472656 25.984375 C 25.472656 27.460938 24.273438 28.660156 22.792969 28.660156 L 7.222656 28.660156 C 5.746094 28.660156 4.542969 27.460938 4.542969 25.984375 L 4.542969 6.210938 C 4.542969 4.734375 5.746094 3.535156 7.222656 3.535156 L 22.792969 3.535156 C 24.273438 3.535156 25.472656 4.734375 25.472656 6.210938 L 25.472656 25.984375 " fill-opacity="1" fill-rule="nonzero"/></g><g clip-path="url(#id3)"><path fill="rgb(100%, 8.628845%, 8.628845%)" d="M 27.699219 6.039062 C 27.699219 6.386719 27.414062 6.671875 27.066406 6.671875 L 2.953125 6.671875 C 2.605469 6.671875 2.320312 6.386719 2.320312 6.039062 L 2.320312 2.992188 C 2.320312 2.644531 2.605469 2.359375 2.953125 2.359375 L 27.066406 2.359375 C 27.414062 2.359375 27.699219 2.644531 27.699219 2.992188 L 27.699219 6.039062 " fill-opacity="1" fill-rule="nonzero"/></g><path fill="rgb(100%, 100%, 100%)" d="M 9.984375 24.265625 C 9.984375 24.613281 9.699219 24.898438 9.351562 24.898438 L 9.277344 24.898438 C 8.929688 24.898438 8.644531 24.613281 8.644531 24.265625 L 8.644531 10.566406 C 8.644531 10.21875 8.929688 9.933594 9.277344 9.933594 L 9.351562 9.933594 C 9.699219 9.933594 9.984375 10.21875 9.984375 10.566406 L 9.984375 24.265625 " fill-opacity="1" fill-rule="nonzero"/><path fill="rgb(100%, 100%, 100%)" d="M 13.78125 24.230469 C 13.78125 24.578125 13.496094 24.863281 13.148438 24.863281 L 13.074219 24.863281 C 12.726562 24.863281 12.441406 24.578125 12.441406 24.230469 L 12.441406 10.53125 C 12.441406 10.183594 12.726562 9.898438 13.074219 9.898438 L 13.148438 9.898438 C 13.496094 9.898438 13.78125 10.183594 13.78125 10.53125 L 13.78125 24.230469 " fill-opacity="1" fill-rule="nonzero"/><path fill="rgb(100%, 100%, 100%)" d="M 17.578125 24.191406 C 17.578125 24.539062 17.292969 24.824219 16.945312 24.824219 L 16.871094 24.824219 C 16.523438 24.824219 16.238281 24.539062 16.238281 24.191406 L 16.238281 10.492188 C 16.238281 10.144531 16.523438 9.859375 16.871094 9.859375 L 16.945312 9.859375 C 17.292969 9.859375 17.578125 10.144531 17.578125 10.492188 L 17.578125 24.191406 " fill-opacity="1" fill-rule="nonzero"/><path fill="rgb(100%, 100%, 100%)" d="M 21.371094 24.15625 C 21.371094 24.503906 21.085938 24.789062 20.738281 24.789062 L 20.664062 24.789062 C 20.316406 24.789062 20.03125 24.503906 20.03125 24.15625 L 20.03125 10.457031 C 20.03125 10.109375 20.316406 9.824219 20.664062 9.824219 L 20.738281 9.824219 C 21.085938 9.824219 21.371094 10.109375 21.371094 10.457031 L 21.371094 24.15625 " fill-opacity="1" fill-rule="nonzero"/></svg>